<svg width="518" height="480" viewBox="0 0 518 480" fill="none" xmlns="http://www.w3.org/2000/svg">
<path d="M202.26 388.91C200.71 388.47 198.48 388 196.38 387.19C194.72 386.55 193.22 385.62 191.3 385.73C190.975 385.738 190.653 385.667 190.361 385.522C190.07 385.377 189.818 385.163 189.628 384.899C189.438 384.635 189.315 384.329 189.27 384.007C189.225 383.684 189.26 383.356 189.37 383.05C190.22 379.99 189.23 377.14 188.95 374.2C188.519 370.602 189.357 366.966 191.32 363.92C193.09 361.2 194.48 358.21 197.54 356.46C201.96 353.92 206.48 353.23 211.24 355.17C213.82 356.22 216.24 357.53 218.85 358.62C219.782 358.984 220.594 359.601 221.195 360.401C221.795 361.202 222.161 362.153 222.25 363.15C222.68 366.15 223.09 369.04 223.48 371.99C223.517 372.181 223.515 372.377 223.476 372.568C223.436 372.758 223.36 372.939 223.25 373.1C221.7 374.33 221.61 376.23 221.04 377.89C219.14 383.5 215.04 386.63 209.51 388.01C207.114 388.454 204.693 388.755 202.26 388.91Z" fill="#212930"/>
<path d="M50.8103 13.41C50.9885 16.4055 50.316 19.3904 48.8703 22.02C48.3281 23.0669 47.9888 24.2069 47.8703 25.38C47.5303 27.83 46.6303 28.47 44.1803 28.29C42.0223 28.1148 39.8526 28.145 37.7003 28.38C33.2903 28.86 29.1803 28.38 25.5003 25.67C25.0178 25.3062 24.5135 24.9722 23.9903 24.67C20.7265 22.9069 18.2506 19.9743 17.0598 16.4611C15.8689 12.9479 16.0513 9.11425 17.5703 5.72997C18.4103 3.72997 19.5703 1.81997 20.3103 -0.270027C21.5603 -3.75003 24.2603 -5.06003 27.5903 -5.51003C29.8503 -5.81003 32.1303 -6.01003 34.4003 -6.16003C34.9569 -6.08477 35.488 -5.87919 35.9503 -5.56003C36.6966 -5.09809 37.4715 -4.68393 38.2703 -4.32003C47.0003 -1.00003 50.5603 3.92997 50.8103 13.41Z" fill="#212930"/>
<path d="M166.19 147.54C166.662 147.184 167.208 146.938 167.787 146.819C168.367 146.7 168.965 146.71 169.54 146.85C171.306 147.063 173.094 147.026 174.85 146.74C179.077 145.849 183.483 146.513 187.26 148.61C190.56 150.5 193.81 152.29 195.61 155.97C196.725 158.034 197.346 160.328 197.422 162.673C197.499 165.018 197.029 167.348 196.05 169.48C194.95 171.93 193.83 174.38 192.52 176.72C191.974 177.753 191.112 178.583 190.06 179.09C188.193 179.75 186.262 180.216 184.3 180.48C182.56 180.76 180.77 180.77 178.9 180.92C177.81 180.33 176.61 179.28 175.25 179.02C168.04 177.66 163.39 170.62 163 163.59C162.77 159.59 163 155.68 165.18 152.06C165.84 151 165.79 149.43 166.19 147.54Z" fill="#212930"/>
<path d="M350.462 10.84C350.712 14.1292 350.018 17.4215 348.462 20.33C347.932 21.3855 347.594 22.5264 347.462 23.7C347.142 25.81 346.462 26.7 344.462 26.26C341.722 25.6 339.142 26.21 336.462 26.44C332.172 26.8 328.112 26.17 324.672 23.29C324.462 23.0788 324.219 22.9032 323.952 22.77C319.742 21.27 317.952 17.82 316.692 13.9C315.526 10.2604 315.842 6.30797 317.572 2.89999C318.572 0.839994 319.662 -1.16999 320.572 -3.26999C320.911 -4.15384 321.47 -4.93648 322.197 -5.54373C322.923 -6.15098 323.792 -6.56274 324.722 -6.73999C326.662 -7.14999 328.652 -7.27999 330.612 -7.54999C331.581 -7.76326 332.563 -7.91359 333.552 -8C334.287 -7.95444 335.007 -7.76772 335.672 -7.45001C336.672 -6.8393 337.731 -6.33008 338.832 -5.92999C345.232 -4.67999 349.832 2.37 350.322 8.16C350.352 9.15 350.412 10.14 350.462 10.84Z" fill="#212930"/>
<path d="M203.14 272.94C204.67 273.33 206.21 273.66 207.7 274.13C208.93 274.52 210.07 275.19 211.31 275.56C212.857 275.95 214.258 276.778 215.346 277.945C216.433 279.113 217.161 280.569 217.44 282.14C218.06 284.66 219.13 287 218.01 289.61C217.945 289.801 217.945 290.009 218.01 290.2C219.13 294.28 216.73 297.08 214.31 299.7C211.89 302.32 209.07 304.8 206.37 307.27C205.733 307.834 204.971 308.238 204.146 308.448C203.322 308.659 202.459 308.67 201.63 308.48C199.97 308.2 198.28 308.11 196.63 307.97C191.75 307.56 187.79 305.76 185.89 300.85C185.865 300.752 185.828 300.658 185.78 300.57C184.91 298.86 185.4 297.16 185.53 295.38C185.64 293.88 183.8 292.17 184.05 290.78C184.71 287.11 185.58 283.35 188.14 280.39C188.639 279.782 189.357 279.394 190.14 279.31C192.02 279.44 193.04 278.31 194.14 277.17C196.495 274.669 199.712 273.157 203.14 272.94Z" fill="#212930"/>
<path d="M59.1398 319.47C54.8798 321.47 50.7898 323.07 47.5598 325.47C45.3498 324.47 43.2598 323.64 41.2798 322.62C39.6557 321.879 38.1442 320.913 36.7898 319.75C35.3598 318.38 33.0597 317.75 32.6797 315.41C29.0997 314.67 29.7797 311.71 29.5197 309.27C29.2897 307.12 29.1798 304.96 29.0098 302.75C32.0098 301.75 33.2797 299.58 34.1797 297.05C34.7386 295.439 35.8466 294.076 37.3098 293.2C38.4142 292.525 39.4404 291.731 40.3698 290.83C42.3698 288.83 44.9398 288.43 47.5198 288.4C48.7756 288.494 49.9756 288.957 50.9697 289.73C56.1297 293.42 58.7497 298.91 60.9697 304.56C61.4997 305.92 61.1698 307.67 61.0898 309.23C61.0898 310.11 60.5697 310.97 60.5497 311.84C60.5497 313.28 60.9798 314.77 60.7098 316.14C60.3553 317.322 59.8261 318.444 59.1398 319.47Z" fill="#212930"/>
<path d="M156.05 254.56C160.218 253.102 164.129 250.996 167.64 248.32C168.713 249.094 169.835 249.795 171 250.42C172.16 250.97 173.49 251.13 174.66 251.65C175.635 252.144 176.562 252.727 177.43 253.39C178.8 254.39 180.43 255.11 181.43 256.39C182.188 257.708 183.314 258.775 184.67 259.46C184.839 259.572 184.981 259.719 185.087 259.892C185.192 260.065 185.258 260.259 185.28 260.46C185.66 263.28 185.99 266.11 186.28 268.94C186.38 269.523 186.283 270.123 186.004 270.644C185.726 271.166 185.281 271.58 184.74 271.82C183.626 272.451 182.743 273.422 182.22 274.59C181.1 277.85 178.96 280.05 176.35 282.18C174.13 284.015 171.45 285.208 168.6 285.63C167.861 285.75 167.105 285.703 166.387 285.492C165.668 285.281 165.007 284.911 164.45 284.41C160.041 280.822 156.646 276.144 154.6 270.84C153.848 268.881 153.705 266.741 154.19 264.7C154.32 264.02 154.78 263.23 154.57 262.7C153.37 259.53 154.89 257 156.05 254.56Z" fill="#212930"/>
<path d="M152 106.286C153 104.026 153.82 102.176 154.59 100.286C155.988 96.7852 158.298 93.7225 161.28 91.4162C161.59 91.1862 162.01 90.8962 162.06 90.5762C162.41 88.3462 163.94 88.1962 165.79 88.1062C167.64 88.0162 169.28 87.3962 171.05 87.1062C172.82 86.8162 174.4 87.0162 175.54 89.0362C176.23 90.2662 177.88 91.1162 179.28 91.7262C181.61 92.7262 183.73 93.8462 184.87 96.3262C185.22 97.1062 186.15 97.5962 186.59 98.3262C187.523 99.7059 188.263 101.206 188.79 102.786C189.53 105.606 188.79 107.936 186.71 110.366C183.2 114.486 178.6 116.686 173.96 118.886C172.57 119.556 170.69 119.346 169.04 119.306C167.289 119.083 165.524 118.996 163.76 119.046C162.612 119.154 161.457 118.928 160.433 118.396C159.41 117.864 158.562 117.048 157.99 116.046C156.52 113.706 155.41 111.146 153.99 108.746C153.398 107.871 152.732 107.048 152 106.286Z" fill="#212930"/>
<path d="M40.4301 48.2599C41.2201 51.0399 43.2101 52.1999 45.4301 52.9799C49.9601 54.5999 52.1601 58.5 54.1801 62.28C55.6401 65.02 55.3501 68.01 53.0401 70.83C49.3501 75.35 44.4602 77.83 39.3802 80.14C39.1112 80.2656 38.8338 80.3725 38.5501 80.46C34.7261 80.3696 30.9117 80.0356 27.1302 79.46C26.278 79.1821 25.4907 78.7351 24.8154 78.1457C24.1401 77.5563 23.5907 76.8367 23.2002 76.03C22.2002 73.89 21.0802 71.77 19.9102 69.71C19.31 68.8099 18.6413 67.9573 17.9102 67.16C18.9102 64.85 19.6602 62.66 20.7002 60.6C21.5502 58.93 22.8202 57.48 23.7002 55.81C24.8502 53.56 27.4402 52.59 28.4402 50.22C28.6202 49.78 29.3802 49.5699 29.8902 49.2899C30.0694 49.2072 30.2629 49.1596 30.4601 49.1499C32.5201 48.8399 34.5702 48.4799 36.6302 48.2599C37.896 48.1951 39.1643 48.1951 40.4301 48.2599Z" fill="#212930"/>
<path d="M296 444.952C296.9 442.832 297.54 441.102 298.36 439.462C299.18 437.822 300.24 435.982 301.27 434.292C301.966 433.215 302.723 432.18 303.54 431.192C303.862 430.866 304.225 430.584 304.62 430.352C305.06 430.012 305.79 429.762 305.91 429.352C306.52 427.302 307.96 426.862 309.84 426.972C310.435 427.02 311.033 426.935 311.59 426.722C313.79 425.722 316.04 425.952 318.43 426.282C319.34 428.842 321.43 430.062 323.82 430.992C325.99 431.842 327.93 432.992 328.82 435.332C329.13 436.112 329.99 436.672 330.58 437.332C331.856 438.746 332.651 440.528 332.85 442.422C332.974 443.582 332.854 444.755 332.498 445.866C332.141 446.977 331.556 448.001 330.78 448.872C327.28 453.312 322.53 455.662 317.63 457.872C316.524 458.318 315.329 458.5 314.14 458.402C311.79 458.242 309.49 457.782 307.07 457.802C305.39 457.802 303.24 456.422 302.07 455.012C300.35 452.902 299.37 450.192 297.99 447.782C297.385 446.799 296.72 445.854 296 444.952Z" fill="#212930"/>
<path d="M387.14 19C387.585 20.2911 388.357 21.4449 389.38 22.3491C390.404 23.2533 391.644 23.8772 392.98 24.16C393.179 24.1927 393.367 24.2714 393.53 24.39C397.7 27.7 401.46 31.27 401.87 37.06C401.917 38.5505 401.407 40.005 400.44 41.14C397.03 45.85 392.2 48.53 387.1 50.87C385.153 51.663 383.009 51.8375 380.96 51.37C379.709 51.1005 378.429 50.983 377.15 51.02C375.855 51.1509 374.55 50.9134 373.384 50.3349C372.218 49.7564 371.239 48.8604 370.56 47.75C369.628 46.341 368.773 44.8822 368 43.38C366.95 41.51 365.93 39.62 365 37.9C365.88 35.79 366.64 33.58 367.68 31.52C368.52 29.85 369.76 28.38 370.68 26.75C371.94 24.58 374.43 23.5 375.51 21.17C375.634 20.959 375.802 20.7768 376.002 20.6355C376.202 20.4941 376.43 20.3968 376.67 20.35C380.16 19.85 383.65 19.44 387.14 19Z" fill="#212930"/>
<path d="M198.42 325.88C198.42 328.14 197.36 330.09 198.67 332.02C198.88 332.33 198.15 333.34 197.76 334.02C196.744 335.332 195.828 336.72 195.02 338.17C193.628 341.259 191.644 344.045 189.18 346.37C188.125 347.442 186.794 348.202 185.335 348.563C183.875 348.925 182.343 348.876 180.91 348.42C178.33 347.69 175.83 346.71 173.28 345.9C171.09 345.21 170.12 343.27 168.82 341.68C166.97 339.41 165.93 336.95 167.15 333.98C167.393 333.322 167.468 332.614 167.37 331.92C166.64 326.84 169.43 323.39 172.79 320.29C174.85 318.383 177.476 317.199 180.27 316.92C183.6 316.55 186.82 315.76 190.27 316.27C194.33 316.81 198.79 321.84 198.42 325.88Z" fill="#212930"/>
<path d="M235.58 144C235.58 148 234.99 150.85 232.58 153.06C231.472 154.211 230.094 155.066 228.571 155.548C227.048 156.03 225.428 156.123 223.86 155.82C222.628 155.415 221.287 155.505 220.12 156.07C219.12 156.65 218.34 156.19 217.52 155.4C216.504 154.329 215.297 153.457 213.96 152.83C210.73 151.482 207.823 149.465 205.43 146.91C204.261 145.805 203.44 144.383 203.068 142.817C202.697 141.252 202.792 139.612 203.34 138.1C204.07 135.93 204.75 133.74 205.51 131.59C206.95 127.53 210.51 125.9 214.04 124.23C214.319 124.117 214.623 124.082 214.92 124.13C218.06 124.52 221.37 124.44 224.3 125.44C226.929 126.285 229.281 127.821 231.111 129.889C232.941 131.956 234.181 134.478 234.7 137.19C235.109 139.444 235.403 141.717 235.58 144Z" fill="#212930"/>
<path d="M142.49 -17.33C142.644 -19.1038 142.922 -20.8648 143.32 -22.6C144.12 -25.3 145.39 -27.69 148.24 -28.96C149.562 -29.6539 150.758 -30.563 151.78 -31.65C152.414 -32.3567 153.261 -32.8369 154.192 -33.0175C155.124 -33.198 156.089 -33.069 156.94 -32.65C158.48 -32.04 160.2 -31.88 161.78 -31.37C163.019 -31.1083 164.177 -30.5565 165.16 -29.76C167.755 -27.0086 170.158 -24.0817 172.35 -21C173.153 -19.9009 173.599 -18.5823 173.63 -17.2217C173.66 -15.8611 173.273 -14.5239 172.52 -13.39C170.35 -9.83002 168.42 -6.13002 166.14 -2.64002C165.266 -1.29078 164.056 -0.191677 162.629 0.549778C161.202 1.29123 159.607 1.64965 158 1.58997C151.84 1.46997 147.07 -1.08002 144.75 -7.20002C143.47 -10.47 142.1 -13.68 142.49 -17.33Z" fill="#212930"/>
<path d="M298.23 51.12C298.08 44.9 301.03 40.79 306.59 38.21C311.56 35.8236 317.228 35.3226 322.54 36.8C323.712 37.0216 324.817 37.5067 325.774 38.2188C326.73 38.9308 327.512 39.8512 328.06 40.91C328.965 42.4495 330.079 43.8562 331.37 45.09C332.024 45.7064 332.46 46.5188 332.611 47.4046C332.763 48.2903 332.622 49.2013 332.21 50C331.737 51.4992 331.352 53.0253 331.06 54.57C330.809 55.8117 330.334 56.9975 329.66 58.07C326.912 61.3716 323.592 64.1525 319.86 66.28C319.059 66.8026 318.131 67.0957 317.175 67.1274C316.22 67.1591 315.274 66.9283 314.44 66.46C310.44 64.28 306.44 62.13 302.5 59.77C299.31 57.85 298.19 54.7 298.23 51.12Z" fill="#212930"/>
<path d="M218.19 495.14C218.19 488.47 221.13 484.65 227.34 481.87C231.664 480.021 236.438 479.495 241.06 480.36C243.88 480.8 246.54 481.85 248.06 484.81C248.954 486.358 250.062 487.772 251.35 489.01C252.015 489.612 252.465 490.414 252.631 491.295C252.797 492.176 252.67 493.088 252.27 493.89C251.657 495.452 251.282 497.097 251.16 498.77C251.03 500.379 250.268 501.871 249.04 502.92C246.37 505.29 243.62 507.59 240.77 509.73C239.827 510.492 238.673 510.945 237.463 511.027C236.253 511.11 235.048 510.817 234.01 510.19C230.1 508.03 226.17 505.9 222.35 503.59C219.2 501.7 218.24 498.6 218.19 495.14Z" fill="#212930"/>
<path d="M71.7904 194C71.3404 196.13 71.0604 198.3 70.4104 200.37C70.132 201.48 69.6047 202.513 68.8684 203.39C68.1321 204.266 67.2061 204.964 66.1604 205.43C64.7648 206.211 63.5134 207.226 62.4605 208.43C61.8917 209.131 61.098 209.613 60.2139 209.796C59.3299 209.978 58.41 209.849 57.6104 209.43C56.1673 208.727 54.602 208.309 53.0004 208.2C52.1058 208.181 51.2259 207.968 50.4214 207.576C49.6169 207.184 48.907 206.623 48.3405 205.93C46.2205 203.56 44.0904 201.17 42.2204 198.61C40.3504 196.05 39.7804 193.24 41.5504 190.26C43.6804 186.66 45.5504 182.94 47.8104 179.41C48.6439 178.155 49.7686 177.121 51.0885 176.395C52.4084 175.668 53.8844 175.272 55.3904 175.24C61.9504 174.76 66.7005 177.81 69.2805 183.89C71.3405 188.63 71.7604 190.53 71.7904 194Z" fill="#212930"/>
<path d="M142.72 381.84C142.67 381.044 142.67 380.246 142.72 379.45C143.21 375.62 144.19 372.12 148.07 370.14C149.515 369.275 150.857 368.249 152.07 367.08C152.672 366.482 153.446 366.088 154.283 365.952C155.12 365.815 155.979 365.944 156.74 366.32C158.157 367.024 159.687 367.474 161.26 367.65C162.154 367.662 163.035 367.868 163.842 368.255C164.648 368.642 165.361 369.2 165.93 369.89C168.07 372.38 170.16 374.89 172.07 377.57C172.989 378.704 173.524 380.099 173.599 381.557C173.675 383.014 173.286 384.457 172.49 385.68C170.39 389.17 168.44 392.75 166.25 396.18C165.538 397.322 164.567 398.279 163.414 398.975C162.262 399.67 160.962 400.083 159.62 400.18C151.88 400.99 147.2 397.84 144.68 391.59C142.63 386.61 142.44 385.91 142.72 381.84Z" fill="#212930"/>
<path d="M32 113.706C32.63 110.706 33 107.926 33.81 105.266C34.1988 103.969 34.9026 102.787 35.8588 101.828C36.8149 100.868 37.9937 100.16 39.29 99.7663C42.08 98.7663 45.13 98.4363 47.44 96.2463C47.7504 96.0969 48.0884 96.0136 48.4326 96.0015C48.7769 95.9895 49.1199 96.049 49.44 96.1763C53.01 97.3463 56.52 98.6963 60.11 99.7963C60.8874 99.9406 61.5981 100.33 62.138 100.908C62.6779 101.485 63.0185 102.221 63.11 103.006C63.4591 104.333 64.1093 105.561 65.01 106.596C66.91 109.056 66.96 109.996 65.33 112.736C64.6016 113.916 64.0587 115.201 63.72 116.546C62.87 120.296 60.94 123.076 57.3 124.546C55.37 125.336 53.55 126.416 51.58 127.066C50.3538 127.467 49.0455 127.546 47.78 127.296C41.48 125.976 36.19 123.066 33.12 117.096C32.6438 116.003 32.2689 114.868 32 113.706Z" fill="#212930"/>
<path d="M118.87 432.08C123.943 432.296 128.812 434.137 132.76 437.33C135.185 439.282 136.86 442.013 137.5 445.06C137.939 447.024 137.651 449.082 136.69 450.85C135.69 452.79 134.69 454.74 133.77 456.73C132.47 459.54 130.23 461.53 127.91 463.4C127.148 463.979 126.25 464.352 125.303 464.484C124.355 464.615 123.39 464.5 122.5 464.15C116.864 462.351 111.906 458.885 108.28 454.21C105.71 450.94 104.28 444 108.12 439.46C110.12 437.09 112.12 434.74 115 433.39C116.263 432.879 117.555 432.441 118.87 432.08Z" fill="#212930"/>
<path d="M119 33.14C124.85 33.67 130 35.41 134.12 39.63C137.94 43.54 138.63 48.13 136.12 52.97C134.57 55.97 133.39 59.1 130.97 61.63C126.97 65.82 124.37 66.23 119.07 63.77C115.25 61.8462 111.816 59.2361 108.94 56.07C105.71 52.79 104.94 45.89 107.28 41.92C109.065 38.6674 111.8 36.037 115.12 34.38C116.382 33.873 117.678 33.4586 119 33.14Z" fill="#212930"/>
<path d="M185.79 457.46C185.38 463.75 183.42 469.26 178.52 473.36C174.95 476.36 170.94 477.05 166.59 474.96C162.73 473.11 158.89 471.28 155.89 468.06C154.834 467.08 154.106 465.799 153.806 464.391C153.505 462.982 153.646 461.515 154.21 460.19C156.018 455.333 158.944 450.969 162.75 447.45C165.95 444.39 172.34 443.45 176.49 445.51C180.27 447.388 183.296 450.499 185.07 454.33C185.431 455.342 185.673 456.392 185.79 457.46Z" fill="#212930"/>
<path d="M97.4111 165.031C91.6111 164.581 86.8211 162.841 82.8611 159.211C78.9011 155.581 77.9311 150.812 80.2111 145.692C81.9211 141.862 83.8011 138.171 86.9211 135.221C87.9792 134.169 89.3228 133.449 90.7857 133.152C92.2485 132.856 93.7663 132.994 95.1511 133.552C99.9227 135.345 104.171 138.301 107.511 142.151C110.721 145.911 111.771 150.431 109.741 155.222C108.037 159.304 104.808 162.561 100.741 164.302C99.6635 164.674 98.5458 164.919 97.4111 165.031Z" fill="#212930"/>
<path d="M186 58.84C185.593 63.8091 183.693 68.5391 180.55 72.41C177.95 75.54 174.66 77.41 170.42 77.14C169.943 77.1698 169.463 77.1225 169 77C164.14 74.77 159 73 155.44 68.62C154.612 67.7574 154.039 66.6821 153.785 65.5135C153.53 64.3449 153.605 63.1287 154 62C155.702 56.7796 158.772 52.1109 162.89 48.48C164.933 46.7887 167.442 45.7595 170.084 45.529C172.726 45.2986 175.376 45.8779 177.68 47.19C180.444 48.8136 182.725 51.1433 184.29 53.94C184.99 55.5251 185.562 57.1637 186 58.84Z" fill="#212930"/>
<path d="M236.27 23.61C236.27 25.89 236.42 28.1899 236.27 30.4599C235.97 34.0299 233.59 36.2999 230.87 38.25C230.422 38.4483 229.94 38.5571 229.45 38.57C228.21 38.81 226.97 39.0299 225.73 39.2899C224.86 39.4799 223.9 40.1099 223.17 39.8999C220.823 39.322 218.417 39.02 216 39C212.79 38.7999 209.61 35 209 31.79C208.2 27.63 207.86 23.49 209.08 19.3899C209.64 17.4999 210.47 15.7 211.2 13.86C211.346 13.5996 211.528 13.3607 211.74 13.15C214.15 10.32 222.39 8.14995 225.85 9.63995C229.099 10.9479 231.962 13.0608 234.17 15.7799C235.072 16.8515 235.728 18.1083 236.091 19.4613C236.454 20.8144 236.515 22.2307 236.27 23.61Z" fill="#212930"/>
<path d="M126.45 193.64C125.754 193.59 125.056 193.59 124.36 193.64C120.44 194.2 117.68 192.13 115.22 189.55C114.543 188.839 114.143 187.91 114.09 186.93C114.084 185.341 113.715 183.774 113.01 182.35C112.55 181.469 112.45 180.444 112.73 179.49C113.73 177.61 113.49 175.76 113.44 173.79C113.36 171.03 116.59 167.21 119.67 166.45C125.181 164.929 131.037 165.234 136.36 167.32C137.735 167.791 138.967 168.603 139.941 169.68C140.916 170.758 141.6 172.065 141.93 173.48C142.474 175.078 142.872 176.721 143.12 178.39C143.316 180.255 143.08 182.141 142.43 183.9C141.135 187.058 138.954 189.773 136.15 191.72C134.433 192.695 132.563 193.371 130.62 193.72C129.236 193.885 127.838 193.905 126.45 193.78V193.64Z" fill="#212930"/>
<path d="M87 -18.0001C87.6929 -17.9651 88.3871 -17.9651 89.08 -18.0001C93.27 -18.4001 96.29 -16.2801 98.97 -13.4501C99.43 -12.9601 100.05 -12.2601 99.97 -11.7201C99.72 -9.44006 100.5 -7.44006 101.28 -5.39006C101.511 -4.82951 101.511 -4.2006 101.28 -3.64006C100.11 -1.83006 100.52 0.109938 100.38 2.05994C100.268 3.62286 99.6832 5.11467 98.7024 6.33664C97.7216 7.55862 96.3918 8.45275 94.89 8.89994C91.7041 10.0649 88.299 10.5068 84.9212 10.1938C81.5434 9.88075 78.2776 8.82054 75.36 7.08994C74.2449 6.44967 73.365 5.46811 72.85 4.28994C71.8715 1.70136 71.1546 -0.978668 70.71 -3.71006C70.444 -6.12294 71.1372 -8.54367 72.64 -10.4501C73.33 -11.4501 74.06 -12.3701 74.84 -13.2701C78.49 -17.5301 80.5 -18.3101 87 -18.0001Z" fill="#212930"/>
<path d="M87.2705 409.24C83.5625 409.214 79.9044 408.382 76.5505 406.8C75.5873 406.383 74.7221 405.769 74.0107 404.998C73.2994 404.226 72.7576 403.314 72.4205 402.32C71.7261 400.364 71.1812 398.358 70.7905 396.32C70.5377 394.891 70.5972 393.425 70.9649 392.022C71.3325 390.618 71.9997 389.311 72.9205 388.19C73.7205 387.19 74.4905 386.14 75.3305 385.19C76.4549 383.719 77.9324 382.555 79.6264 381.807C81.3203 381.059 83.1757 380.75 85.0205 380.91C86.4033 381.086 87.8003 381.123 89.1905 381.02C93.4805 380.46 96.3405 382.88 99.0205 385.62C99.5404 386.31 99.8837 387.117 100.021 387.97C100.411 389.48 100.531 391.06 101.021 392.54C101.275 393.182 101.388 393.872 101.354 394.562C101.319 395.252 101.137 395.926 100.821 396.54C100.417 397.313 100.227 398.179 100.271 399.05C100.499 401.183 99.929 403.324 98.6715 405.062C97.414 406.8 95.5577 408.01 93.4605 408.46C91.4126 408.831 89.3463 409.091 87.2705 409.24Z" fill="#212930"/>
<path d="M236.27 425.42C236.27 426.17 236.21 426.97 236.27 427.76C236.449 429.522 236.105 431.298 235.279 432.865C234.454 434.432 233.184 435.721 231.63 436.57C228.744 438.014 225.556 438.751 222.33 438.72C220.67 438.72 218.9 438.01 216.97 438.14C213.97 438.34 209.71 434.75 209.11 431.78C208.24 427.46 207.7 423.09 208.9 418.78C209.464 416.983 210.131 415.22 210.9 413.5C211.142 412.951 211.48 412.449 211.9 412.02C215.17 408.47 224.23 407.32 228.28 409.91C228.62 410.13 228.94 410.36 229.28 410.57C234.78 414 237.52 418.73 236.27 425.42Z" fill="#212930"/>
<path d="M57.8917 384.209C55.7317 383.089 54.2017 383.609 52.5117 385.469C49.2217 389.099 44.7517 390.039 39.9917 389.729C39.5925 389.73 39.2009 389.619 38.8617 389.408C36.3117 387.318 33.2317 385.709 32.0717 382.279C31.2417 379.839 30.3617 377.409 29.5317 374.969C28.3717 371.539 29.1017 369.969 31.8017 367.759C33.7312 366.129 35.4152 364.229 36.8017 362.119C37.4501 360.991 38.4355 360.096 39.6194 359.558C40.8033 359.019 42.126 358.866 43.4017 359.119C43.8917 359.189 44.4017 359.269 44.8817 359.289C50.8017 359.469 54.1117 362.878 55.8317 368.188C56.3917 369.888 56.7217 371.659 57.2917 373.349C57.7501 374.855 58.3634 376.309 59.1217 377.688C60.6417 380.298 60.7017 380.429 58.7417 382.849C58.4353 383.287 58.1516 383.741 57.8917 384.209Z" fill="#212930"/>
<path d="M137.26 119.29C138.525 119.487 139.772 119.785 140.99 120.18C143.301 121.09 145.564 122.118 147.77 123.26C151.77 125.32 153.29 128.91 153.16 133.15C152.94 140.03 148.91 144.47 143.21 147.66C142.48 147.963 141.7 148.129 140.91 148.15C140.33 148.22 139.67 147.97 139.14 148.15C135.03 149.58 131.54 147.63 128.33 145.72C122.41 142.2 120.94 134.9 124.66 129.11C125.441 127.96 126.342 126.897 127.35 125.94C128.97 124.34 130.72 122.88 132.35 121.3C132.994 120.655 133.759 120.145 134.602 119.8C135.446 119.454 136.349 119.281 137.26 119.29Z" fill="#212930"/>
<path d="M190.57 411.74C191.49 414.11 190.67 416.65 190.07 419.29C189.714 421.355 188.791 423.281 187.403 424.851C186.014 426.421 184.217 427.574 182.21 428.18C177.01 429.93 172.14 428.46 168.31 424.05C167.02 422.55 165.67 421.1 164.31 419.65C161.6 416.75 161.15 414.02 162.84 410.34C163.71 408.44 164.62 406.56 165.48 404.65C167.48 400.33 170.96 398.41 175.48 398.48C177.941 398.462 180.369 399.047 182.551 400.183C184.733 401.32 186.604 402.974 188 405C189.4 406.9 191.22 408.68 190.57 411.74Z" fill="#212930"/>
<path d="M179.77 201.94C182.62 203.08 182.88 202.99 185.03 200.59C188.13 197.13 192.32 196.4 196.64 196.09C197.244 196.059 197.843 196.22 198.35 196.55C201.24 198.55 204.49 200.18 205.67 203.93C206.42 206.3 207.44 208.59 208.23 210.93C209.37 214.3 208.64 216.1 205.8 218.1C203.969 219.555 202.446 221.36 201.32 223.41C199.65 226.08 197.47 227.32 194.32 226.7C194.22 226.69 194.12 226.69 194.02 226.7C187.22 226.32 184.21 224.8 181.54 216.57C180.54 213.47 180.13 210.16 177.95 207.49C177.712 207.228 177.532 206.918 177.423 206.581C177.314 206.244 177.278 205.887 177.317 205.535C177.357 205.183 177.472 204.843 177.653 204.539C177.835 204.234 178.079 203.972 178.37 203.77C178.889 203.202 179.357 202.59 179.77 201.94Z" fill="#212930"/>
<path d="M250.005 103.65C250.005 98.1301 251.915 94.2 255.515 91.14C256.809 90.054 258.19 89.0773 259.645 88.2201C260.437 87.8352 261.29 87.5915 262.165 87.5C262.625 87.42 263.245 87.7901 263.615 87.6101C266.835 86.0201 269.615 87.9501 272.485 88.7401C279.105 90.5701 282.795 100.23 279.155 105.53C277.675 107.68 276.325 109.83 274.025 111.22C273.162 111.74 272.406 112.419 271.795 113.22C269.225 116.6 265.865 117.08 262.205 115.67C259.622 114.655 257.133 113.417 254.765 111.97C253.278 111.162 252.045 109.955 251.204 108.486C250.363 107.016 249.948 105.342 250.005 103.65Z" fill="#212930"/>
<path d="M60.0905 43.6899C60.0905 37.6899 62.2405 33.5499 66.2405 30.4099C68.5316 28.5294 71.3452 27.3983 74.3005 27.1699C79.0405 26.7699 83.2405 27.8899 86.3605 30.8899C92.7205 36.9899 92.1605 44.5299 84.7505 50.6399C83.6885 51.364 82.7063 52.1987 81.8205 53.1299C78.8205 56.99 74.4205 56.59 71.3005 55.1299C69.6005 54.3099 67.9205 53.4399 66.2405 52.5899C62.2405 50.5299 60.0005 47.4099 60.0905 43.6899Z" fill="#212930"/>
<path d="M175.32 -0.689941C179.949 -0.38905 184.284 1.68045 187.43 5.09006C190.34 8.09006 190.56 12.0001 191.54 15.6801C191.605 15.8713 191.605 16.0788 191.54 16.2701C190.01 19.5701 189.77 23.4001 187.19 26.2701C184.61 29.1401 178.19 30.8901 174.55 29.2701C173.055 28.715 171.665 27.9102 170.44 26.8901C167.846 24.4371 165.411 21.8219 163.15 19.0601C161.27 16.7301 161.74 13.9801 162.82 11.4001C163.7 9.29006 164.69 7.22006 165.7 5.17006C167.66 1.24006 171.18 -0.269941 175.32 -0.689941Z" fill="#212930"/>
<path d="M85.4202 484.68C85.3834 484.067 85.3834 483.453 85.4202 482.84C86.1202 477.51 93.9002 470.65 99.2702 470.54C102.27 470.47 104.86 471.8 107.27 473.31C108.417 474.096 109.488 474.986 110.47 475.97C110.958 476.321 111.336 476.803 111.56 477.36C112.13 480.01 113.48 482.52 113.21 485.36C112.994 488.963 111.627 492.402 109.31 495.17C108.426 495.996 107.412 496.671 106.31 497.17C104.58 498.17 102.78 498.97 101.04 499.91C100.386 500.26 99.6642 500.465 98.9236 500.51C98.1831 500.555 97.4416 500.439 96.7502 500.17C88.4902 497.54 85.8302 490.47 85.4202 484.68Z" fill="#212930"/>
<path d="M109.626 78C112.576 78.0137 115.446 78.9587 117.826 80.7C119.031 81.5752 120.186 82.5166 121.286 83.52C121.618 83.7434 121.882 84.0551 122.046 84.42C122.776 87.32 124.306 90.08 123.806 93.2C123.376 95.95 122.986 98.76 121.136 101C120.244 102.185 119.167 103.218 117.946 104.06C115.73 105.374 113.425 106.53 111.046 107.52C110.128 107.865 109.125 107.918 108.176 107.67C105.44 107.068 102.928 105.706 100.931 103.741C98.9342 101.775 97.5321 99.2865 96.8862 96.56C95.9762 93.26 95.2662 89.97 97.3962 86.8C99.9962 82.92 103.046 79.61 107.706 78.24C108.335 78.0894 108.979 78.0089 109.626 78Z" fill="#212930"/>
<path d="M100.226 288.16C98.2265 287.6 96.0765 287.16 94.0365 286.39C92.7111 285.95 91.4958 285.23 90.4727 284.279C89.4496 283.329 88.6426 282.17 88.1065 280.88C87.3165 279.06 86.1965 277.39 85.4765 275.55C85.0271 274.473 84.8919 273.291 85.0865 272.14C85.5887 269.587 86.7764 267.219 88.5222 265.29C90.2681 263.361 92.5062 261.944 94.9965 261.19C97.1414 260.411 99.4046 260.009 101.686 260C107.686 260.21 115.326 268.68 114.686 274.61C114.436 277.07 113.166 279.51 111.996 281.77C111.068 283.176 109.973 284.465 108.736 285.61C108.505 285.935 108.186 286.188 107.816 286.34C105.376 286.97 102.886 287.53 100.226 288.16Z" fill="#212930"/>
<path d="M122.74 325.14C121.467 325.051 120.212 324.789 119.01 324.36C114.858 322.346 111.545 318.938 109.65 314.73C109.14 313.59 108.863 312.36 108.834 311.112C108.804 309.864 109.024 308.622 109.48 307.46C110.66 304.394 112.552 301.652 115 299.46C115.352 299.106 115.774 298.83 116.24 298.65C122.07 296.84 127.76 296.49 132.86 300.65C133.84 301.496 134.66 302.513 135.28 303.65C136.39 305.65 137.28 307.71 138.28 309.76C138.59 310.495 138.742 311.287 138.727 312.085C138.711 312.882 138.528 313.668 138.19 314.39C136.01 320.39 131.52 323.58 125.43 324.77C124.545 324.897 123.654 324.974 122.76 325L122.74 325.14Z" fill="#212930"/>
<path d="M134.7 246.31C132.47 245.67 129.44 244.8 126.41 243.91C125.85 243.74 125.32 243.24 124.78 243.26C122.41 243.32 121.78 241.64 121.27 239.87C120.603 237.69 120.01 235.493 119.49 233.28C119.33 232.708 119.33 232.102 119.49 231.53C121.14 226.87 123.49 222.63 127.42 219.53C127.859 219.125 128.397 218.842 128.98 218.71C134.98 218.07 141.38 219.88 145.11 226.02C145.57 226.78 145.81 227.69 146.32 228.41C148.77 231.77 147.82 234.97 145.85 238.04C144.591 239.955 143.222 241.794 141.75 243.55C140.15 245.4 138 246 134.7 246.31Z" fill="#212930"/>
<path d="M261.21 20.44C261.84 14.34 264.21 9.26997 270.21 6.54997C270.397 6.47956 270.578 6.39254 270.75 6.28997C275.04 3.34996 278.75 4.92996 282.2 7.85996C282.993 8.45912 283.821 9.01011 284.68 9.50997C287.8 11.57 289.33 14.51 288.68 18.17C288.18 20.88 287.22 23.5 286.46 26.17C286.38 26.46 286.13 26.72 286.14 27C286.14 30.2 283.68 30.71 281.43 31.39C279.53 31.97 277.6 32.44 275.67 32.9C275.215 33.0303 274.734 33.0303 274.28 32.9C270.4 31.55 266.74 29.85 263.79 26.84C262 25 260.51 23.25 261.21 20.44Z" fill="#212930"/>
<path d="M288.8 417.38C288.31 419.08 287.5 421.93 286.66 424.78C286.52 425.25 286.07 425.68 286.07 426.14C286.07 428.88 284.07 429.53 282.01 430.04C281.53 430.16 281.01 430.32 280.57 430.42C278.27 430.86 276.14 432.52 273.66 431.65C269.09 430.05 264.96 427.72 261.96 423.76C261.563 423.312 261.312 422.754 261.24 422.16C261.3 419 261.3 415.92 262.76 412.86C265.18 407.81 269.55 405.55 274.3 403.61C274.658 403.446 275.063 403.417 275.44 403.53C277.68 404.53 280.28 404.72 282.12 406.68C283.007 407.479 283.979 408.177 285.02 408.76C287.64 410.52 288.78 413 288.8 417.38Z" fill="#212930"/>
<path d="M82.58 355.8C78.3 356.31 74.87 354.03 71.77 351.3C69.3862 349.009 67.7957 346.017 67.2299 342.76C66.5399 339.65 68.6599 337.32 70.1699 334.91C70.6999 334.08 71.42 333.37 71.96 332.55C72.8059 331.063 74.0956 329.878 75.6485 329.161C77.2013 328.444 78.9396 328.23 80.62 328.55C83.43 329 86.38 329.2 88.82 331.02C89.0594 331.204 89.3485 331.312 89.65 331.33C92.37 331.25 93.13 333.11 93.65 335.28C94.17 337.45 94.8299 339.68 95.3599 341.89C95.4631 342.372 95.4178 342.874 95.2299 343.33C93.4599 347.58 91.47 351.66 87.8 354.7C87.0763 355.278 86.2271 355.679 85.3206 355.87C84.4141 356.061 83.4755 356.037 82.58 355.8Z" fill="#212930"/>
<path d="M107.73 356.59C107.71 353.947 108.368 351.344 109.64 349.027C110.913 346.711 112.758 344.76 115 343.36C115.593 343.004 116.248 342.763 116.93 342.65C118.57 342.29 120.24 342.05 121.87 341.65C123.99 341.19 125 341.52 126.13 343.39C127.87 346.28 129.76 349.11 130.19 352.6C130.301 353.186 130.521 353.746 130.84 354.25C133.64 359.42 132.15 364.31 129.78 369.08C129.372 369.89 128.723 370.553 127.923 370.98C127.122 371.406 126.21 371.574 125.31 371.46C123.14 371.36 120.96 371.36 118.78 371.38C117.326 371.479 115.874 371.168 114.589 370.482C113.304 369.796 112.237 368.763 111.51 367.5C109.448 364.193 108.156 360.464 107.73 356.59Z" fill="#212930"/>
<path d="M246.82 460.07C246.75 459.28 246.65 458 246.52 456.71C246.16 452.99 247.4 449.94 250.82 448.27C253.615 446.782 256.589 445.659 259.67 444.93C265.67 443.75 270.93 446.47 274.67 451.93C275.015 452.549 275.239 453.227 275.33 453.93C275.66 455.46 275.85 457.03 276.25 458.55C276.78 460.55 276.68 461.55 274.95 462.66C272.668 464.029 270.304 465.255 267.87 466.33C266.44 467 264.77 467.18 263.4 467.94C260.459 469.476 257.03 469.788 253.86 468.81C253.08 468.62 252.33 468.34 251.57 468.12C248 467 245.84 465.26 246.82 460.07Z" fill="#212930"/>
<path d="M114.45 7.29006C114.198 5.10578 114.464 2.89291 115.227 0.830683C115.989 -1.23154 117.227 -3.08513 118.84 -4.57995C120.129 -5.824 121.326 -7.16092 122.419 -8.57995C122.83 -9.20072 123.433 -9.66923 124.136 -9.91321C124.839 -10.1572 125.603 -10.1631 126.309 -9.92994C128.339 -9.52448 130.389 -9.22408 132.45 -9.02994C134.35 -8.77994 136.01 -8.02994 136.63 -6.12994C137.95 -2.19994 139.709 1.64005 139.179 6.00006C138.922 8.98517 137.815 11.8341 135.989 14.2101C134.613 16.0559 132.636 17.3643 130.4 17.9101C127.7 18.5301 125.129 19.4501 122.219 18.9101C117.879 18.1801 115.219 15.7801 114.679 11.4101C114.499 10.0801 114.52 8.68006 114.45 7.29006Z" fill="#212930"/>
<path d="M98.3245 204.014H102.205C103.367 203.94 104.53 204.166 105.58 204.671C106.631 205.175 107.534 205.94 108.205 206.894C111.405 211.804 113.865 216.984 112.205 223.154C111.146 226.932 108.671 230.156 105.294 232.154C104.668 232.471 103.991 232.677 103.294 232.764C101.844 233.064 100.364 233.234 98.9345 233.594C96.5345 234.194 95.7845 233.794 94.4145 231.914C91.4745 227.914 90.2045 223.134 88.6345 218.564C87.0645 213.994 88.6345 209.724 90.8745 205.714C91.2102 205.15 91.6979 204.693 92.2815 204.394C92.8652 204.095 93.5212 203.967 94.1745 204.024H98.3545L98.3245 204.014Z" fill="#212930"/>
<path d="M257.31 70.61C255.03 69.94 252.31 69.34 249.74 68.33C247.17 67.32 246.43 65.64 246.55 62.85C246.648 61.1848 246.648 59.5152 246.55 57.85C246.26 53.78 247.94 50.61 251.63 48.85C253.758 47.7778 255.981 46.9041 258.27 46.24C261.164 45.4303 264.24 45.5508 267.063 46.5844C269.886 47.6179 272.312 49.5124 274 52C274.535 52.7214 274.941 53.53 275.2 54.39C275.71 56.29 276.03 58.25 276.49 60.17C276.651 60.8043 276.601 61.474 276.346 62.0771C276.092 62.6801 275.647 63.1833 275.08 63.51C273.904 64.4339 272.629 65.2253 271.28 65.87C266.89 67.69 262.54 69.65 257.31 70.61Z" fill="#212930"/>
<path d="M212.43 53.0599C214.535 52.9722 216.634 53.3446 218.58 54.1511C220.527 54.9577 222.274 56.179 223.7 57.7299C224.631 58.7714 225.709 59.671 226.9 60.3999C229.05 61.6199 229.17 63.3999 228.9 65.5199C228.63 67.3599 228.4 69.2199 228.26 71.0799C228.273 71.8859 228.051 72.6782 227.622 73.3601C227.192 74.042 226.573 74.584 225.84 74.9199C220.67 77.0999 215.44 79.1599 209.69 77.1499C205.69 75.7399 202.45 73.5599 201.21 69.1499C200.46 66.4799 199.54 63.9699 200.08 61.0399C200.81 57.1199 202.65 54.6899 206.56 53.8699C208.46 53.4299 210.46 53.3099 212.43 53.0599Z" fill="#212930"/>
<path d="M212.48 452C214.487 451.947 216.484 452.298 218.353 453.032C220.222 453.765 221.924 454.866 223.36 456.27C224.44 457.441 225.651 458.485 226.97 459.38C229.22 460.76 229.15 462.71 228.81 464.87C228.51 466.408 228.323 467.965 228.25 469.53C228.25 471.67 227.42 473.4 225.51 474.1C221.89 475.43 218.34 477.1 214.31 476.94C210.908 476.855 207.618 475.708 204.9 473.66C201.6 471.16 200.68 467.55 200.03 463.8C199.95 462.611 199.95 461.419 200.03 460.23C199.92 457.23 201.62 454.17 206.03 453.03C208.12 452.45 210.32 452.29 212.48 452Z" fill="#212930"/>
<path d="M139.14 403.69C139.171 405.872 138.719 408.033 137.816 410.019C136.914 412.006 135.583 413.768 133.92 415.18C133.511 415.61 133.017 415.951 132.47 416.18C128.88 417.26 125.4 418.74 121.47 417.86C118.22 417.14 115.63 415.25 115.18 411.97C114.731 408.821 114.56 405.639 114.67 402.46C114.862 399.826 115.982 397.346 117.83 395.46C119.313 393.986 120.712 392.431 122.02 390.8C123.44 388.85 125.12 388.67 127.24 389.18C128.887 389.542 130.558 389.782 132.24 389.9C134.3 390.07 136.09 390.9 136.75 392.81C137.87 396.34 139.3 399.79 139.14 403.69Z" fill="#212930"/>
</svg>
